<?xml version="1.0" encoding="UTF-8" standalone="no"?>
<!DOCTYPE svg PUBLIC "-//W3C//DTD SVG 1.1//EN"
 "http://www.w3.org/Graphics/SVG/1.1/DTD/svg11.dtd">
<!-- Generated by graphviz version 3.0.0 (20221109.1736)
 -->
<!-- Pages: 1 -->
<svg width="1396pt" height="718pt"
 viewBox="0.00 0.00 1395.50 717.87" xmlns="http://www.w3.org/2000/svg" xmlns:xlink="http://www.w3.org/1999/xlink">
<g id="graph0" class="graph" transform="scale(1 1) rotate(0) translate(36 681.87)">
<polygon fill="white" stroke="transparent" points="-36,36 -36,-681.87 1359.5,-681.87 1359.5,36 -36,36"/>
<!-- n8n -->
<g id="node1" class="node">
<title>n8n</title>
<polygon fill="none" stroke="black" points="170.5,-434.48 36.5,-434.48 36.5,-430.48 32.5,-430.48 32.5,-426.48 36.5,-426.48 36.5,-404.48 32.5,-404.48 32.5,-400.48 36.5,-400.48 36.5,-396.48 170.5,-396.48 170.5,-434.48"/>
<polyline fill="none" stroke="black" points="36.5,-430.48 40.5,-430.48 40.5,-426.48 36.5,-426.48 "/>
<polyline fill="none" stroke="black" points="36.5,-404.48 40.5,-404.48 40.5,-400.48 36.5,-400.48 "/>
<text text-anchor="middle" x="103.5" y="-419.28" font-family="Times,serif" font-size="14.00">n8n</text>
<text text-anchor="middle" x="103.5" y="-404.28" font-family="Times,serif" font-size="14.00">(n8nio/n8n:latest)</text>
</g>
<!-- n8n_data -->
<g id="node2" class="node">
<title>n8n_data</title>
<path fill="none" stroke="black" d="M79,-255.07C79,-256.88 61.3,-258.34 39.5,-258.34 17.7,-258.34 0,-256.88 0,-255.07 0,-255.07 0,-225.62 0,-225.62 0,-223.81 17.7,-222.34 39.5,-222.34 61.3,-222.34 79,-223.81 79,-225.62 79,-225.62 79,-255.07 79,-255.07"/>
<path fill="none" stroke="black" d="M79,-255.07C79,-253.27 61.3,-251.8 39.5,-251.8 17.7,-251.8 0,-253.27 0,-255.07"/>
<text text-anchor="middle" x="39.5" y="-236.64" font-family="Times,serif" font-size="14.00">n8n_data</text>
</g>
<!-- n8n&#45;&gt;n8n_data -->
<g id="edge1" class="edge">
<title>n8n&#45;&gt;n8n_data</title>
<path fill="none" stroke="black" stroke-dasharray="5,2" d="M73.11,-389.26C59.09,-375.63 43.94,-357.54 36.5,-337.69 28.18,-315.51 29.98,-288.4 33.25,-268.59"/>
<polygon fill="black" stroke="black" points="71.02,-392.1 80.72,-396.36 75.79,-386.98 71.02,-392.1"/>
<polygon fill="black" stroke="black" points="36.7,-269.17 35.11,-258.69 29.82,-267.88 36.7,-269.17"/>
<text text-anchor="middle" x="92.5" y="-326.49" font-family="Times,serif" font-size="14.00">/home/node/.n8n</text>
</g>
<!-- postgres -->
<g id="node4" class="node">
<title>postgres</title>
<polygon fill="none" stroke="black" points="216.5,-259.34 116.5,-259.34 116.5,-255.34 112.5,-255.34 112.5,-251.34 116.5,-251.34 116.5,-229.34 112.5,-229.34 112.5,-225.34 116.5,-225.34 116.5,-221.34 216.5,-221.34 216.5,-259.34"/>
<polyline fill="none" stroke="black" points="116.5,-255.34 120.5,-255.34 120.5,-251.34 116.5,-251.34 "/>
<polyline fill="none" stroke="black" points="116.5,-229.34 120.5,-229.34 120.5,-225.34 116.5,-225.34 "/>
<text text-anchor="middle" x="166.5" y="-244.14" font-family="Times,serif" font-size="14.00">postgres</text>
<text text-anchor="middle" x="166.5" y="-229.14" font-family="Times,serif" font-size="14.00">(postgres:13)</text>
</g>
<!-- n8n&#45;&gt;postgres -->
<g id="edge3" class="edge">
<title>n8n&#45;&gt;postgres</title>
<path fill="none" stroke="black" stroke-dasharray="1,5" d="M118.18,-396.42C129.44,-381.57 144.39,-359.48 152.5,-337.69 160.65,-315.77 164.08,-289.4 165.51,-269.79"/>
<polygon fill="black" stroke="black" points="169.02,-269.85 166.12,-259.66 162.03,-269.44 169.02,-269.85"/>
</g>
<!-- 0.0.0.05678 -->
<g id="node3" class="node">
<title>0.0.0.05678</title>
<ellipse fill="none" stroke="black" cx="103.5" cy="-586.07" rx="59.59" ry="59.59"/>
<text text-anchor="middle" x="103.5" y="-582.37" font-family="Times,serif" font-size="14.00">0.0.0.0:5678</text>
</g>
<!-- 0.0.0.05678&#45;&gt;n8n -->
<g id="edge2" class="edge">
<title>0.0.0.05678&#45;&gt;n8n</title>
<path fill="none" stroke="black" d="M103.5,-526.11C103.5,-498.53 103.5,-466.96 103.5,-444.8"/>
<polygon fill="black" stroke="black" points="107,-444.74 103.5,-434.74 100,-444.74 107,-444.74"/>
<text text-anchor="middle" x="119" y="-497.08" font-family="Times,serif" font-size="14.00">5678</text>
</g>
<!-- postgres_data -->
<g id="node5" class="node">
<title>postgres_data</title>
<path fill="none" stroke="black" d="M221,-120.73C221,-122.53 196.57,-124 166.5,-124 136.43,-124 112,-122.53 112,-120.73 112,-120.73 112,-91.27 112,-91.27 112,-89.47 136.43,-88 166.5,-88 196.57,-88 221,-89.47 221,-91.27 221,-91.27 221,-120.73 221,-120.73"/>
<path fill="none" stroke="black" d="M221,-120.73C221,-118.92 196.57,-117.45 166.5,-117.45 136.43,-117.45 112,-118.92 112,-120.73"/>
<text text-anchor="middle" x="166.5" y="-102.3" font-family="Times,serif" font-size="14.00">postgres_data</text>
</g>
<!-- postgres&#45;&gt;postgres_data -->
<g id="edge4" class="edge">
<title>postgres&#45;&gt;postgres_data</title>
<path fill="none" stroke="black" stroke-dasharray="5,2" d="M166.5,-211.07C166.5,-188.36 166.5,-156.68 166.5,-134.25"/>
<polygon fill="black" stroke="black" points="163,-211.22 166.5,-221.22 170,-211.22 163,-211.22"/>
<polygon fill="black" stroke="black" points="170,-134.07 166.5,-124.07 163,-134.07 170,-134.07"/>
<text text-anchor="middle" x="243.5" y="-146.8" font-family="Times,serif" font-size="14.00">/var/lib/postgresql/data</text>
</g>
<!-- ollama -->
<g id="node6" class="node">
<title>ollama</title>
<polygon fill="none" stroke="black" points="771.5,-125 607.5,-125 607.5,-121 603.5,-121 603.5,-117 607.5,-117 607.5,-95 603.5,-95 603.5,-91 607.5,-91 607.5,-87 771.5,-87 771.5,-125"/>
<polyline fill="none" stroke="black" points="607.5,-121 611.5,-121 611.5,-117 607.5,-117 "/>
<polyline fill="none" stroke="black" points="607.5,-95 611.5,-95 611.5,-91 607.5,-91 "/>
<text text-anchor="middle" x="689.5" y="-109.8" font-family="Times,serif" font-size="14.00">ollama</text>
<text text-anchor="middle" x="689.5" y="-94.8" font-family="Times,serif" font-size="14.00">(ollama/ollama:latest)</text>
</g>
<!-- ollama_data -->
<g id="node7" class="node">
<title>ollama_data</title>
<path fill="none" stroke="black" d="M740,-32.73C740,-34.53 717.37,-36 689.5,-36 661.63,-36 639,-34.53 639,-32.73 639,-32.73 639,-3.27 639,-3.27 639,-1.47 661.63,0 689.5,0 717.37,0 740,-1.47 740,-3.27 740,-3.27 740,-32.73 740,-32.73"/>
<path fill="none" stroke="black" d="M740,-32.73C740,-30.92 717.37,-29.45 689.5,-29.45 661.63,-29.45 639,-30.92 639,-32.73"/>
<text text-anchor="middle" x="689.5" y="-14.3" font-family="Times,serif" font-size="14.00">ollama_data</text>
</g>
<!-- ollama&#45;&gt;ollama_data -->
<g id="edge5" class="edge">
<title>ollama&#45;&gt;ollama_data</title>
<path fill="none" stroke="black" stroke-dasharray="5,2" d="M689.5,-76.58C689.5,-66.83 689.5,-55.95 689.5,-46.3"/>
<polygon fill="black" stroke="black" points="686,-76.76 689.5,-86.76 693,-76.76 686,-76.76"/>
<polygon fill="black" stroke="black" points="693,-46.04 689.5,-36.04 686,-46.04 693,-46.04"/>
<text text-anchor="middle" x="733.5" y="-57.8" font-family="Times,serif" font-size="14.00">/root/.ollama</text>
</g>
<!-- 0.0.0.011434 -->
<g id="node8" class="node">
<title>0.0.0.011434</title>
<ellipse fill="none" stroke="black" cx="343.5" cy="-240.34" rx="64.19" ry="64.19"/>
<text text-anchor="middle" x="343.5" y="-236.64" font-family="Times,serif" font-size="14.00">0.0.0.0:11434</text>
</g>
<!-- 0.0.0.011434&#45;&gt;ollama -->
<g id="edge6" class="edge">
<title>0.0.0.011434&#45;&gt;ollama</title>
<path fill="none" stroke="black" d="M389.03,-194.28C397.66,-187.41 406.98,-180.97 416.5,-176 472.9,-146.56 542.52,-129.22 597.33,-119.28"/>
<polygon fill="black" stroke="black" points="598.14,-122.69 607.39,-117.51 596.93,-115.8 598.14,-122.69"/>
<text text-anchor="middle" x="514.5" y="-146.8" font-family="Times,serif" font-size="14.00">11434</text>
</g>
<!-- ollama&#45;webui -->
<g id="node9" class="node">
<title>ollama&#45;webui</title>
<polygon fill="none" stroke="black" points="731,-259.34 426,-259.34 426,-255.34 422,-255.34 422,-251.34 426,-251.34 426,-229.34 422,-229.34 422,-225.34 426,-225.34 426,-221.34 731,-221.34 731,-259.34"/>
<polyline fill="none" stroke="black" points="426,-255.34 430,-255.34 430,-251.34 426,-251.34 "/>
<polyline fill="none" stroke="black" points="426,-229.34 430,-229.34 430,-225.34 426,-225.34 "/>
<text text-anchor="middle" x="578.5" y="-244.14" font-family="Times,serif" font-size="14.00">ollama&#45;webui</text>
<text text-anchor="middle" x="578.5" y="-229.14" font-family="Times,serif" font-size="14.00">(ghcr.io/ollama&#45;webui/ollama&#45;webui:main)</text>
</g>
<!-- ollama&#45;webui&#45;&gt;ollama -->
<g id="edge8" class="edge">
<title>ollama&#45;webui&#45;&gt;ollama</title>
<path fill="none" stroke="black" stroke-dasharray="1,5" d="M593.7,-221.22C612.77,-198.48 645.62,-159.31 667.46,-133.28"/>
<polygon fill="black" stroke="black" points="670.38,-135.24 674.13,-125.33 665.02,-130.74 670.38,-135.24"/>
</g>
<!-- 0.0.0.03000 -->
<g id="node10" class="node">
<title>0.0.0.03000</title>
<ellipse fill="none" stroke="black" cx="575.5" cy="-415.48" rx="59.59" ry="59.59"/>
<text text-anchor="middle" x="575.5" y="-411.78" font-family="Times,serif" font-size="14.00">0.0.0.0:3000</text>
</g>
<!-- 0.0.0.03000&#45;&gt;ollama&#45;webui -->
<g id="edge7" class="edge">
<title>0.0.0.03000&#45;&gt;ollama&#45;webui</title>
<path fill="none" stroke="black" d="M576.52,-355.38C577.03,-326.46 577.61,-292.97 578.01,-269.8"/>
<polygon fill="black" stroke="black" points="581.51,-269.69 578.18,-259.63 574.51,-269.57 581.51,-269.69"/>
<text text-anchor="middle" x="593" y="-326.49" font-family="Times,serif" font-size="14.00">8080</text>
</g>
<!-- rag&#45;app -->
<g id="node11" class="node">
<title>rag&#45;app</title>
<polygon fill="none" stroke="black" points="1017.5,-259.34 787.5,-259.34 787.5,-255.34 783.5,-255.34 783.5,-251.34 787.5,-251.34 787.5,-229.34 783.5,-229.34 783.5,-225.34 787.5,-225.34 787.5,-221.34 1017.5,-221.34 1017.5,-259.34"/>
<polyline fill="none" stroke="black" points="787.5,-255.34 791.5,-255.34 791.5,-251.34 787.5,-251.34 "/>
<polyline fill="none" stroke="black" points="787.5,-229.34 791.5,-229.34 791.5,-225.34 787.5,-225.34 "/>
<text text-anchor="middle" x="902.5" y="-244.14" font-family="Times,serif" font-size="14.00">rag&#45;app</text>
<text text-anchor="middle" x="902.5" y="-229.14" font-family="Times,serif" font-size="14.00">(build from &#39;.&#39; using &#39;Dockerfile&#39;)</text>
</g>
<!-- rag&#45;app&#45;&gt;ollama -->
<g id="edge12" class="edge">
<title>rag&#45;app&#45;&gt;ollama</title>
<path fill="none" stroke="black" stroke-dasharray="1,5" d="M880.6,-221.11C855.19,-200.49 811.51,-166.72 770.5,-143 762.2,-138.2 753.13,-133.6 744.17,-129.39"/>
<polygon fill="black" stroke="black" points="745.46,-126.13 734.91,-125.15 742.54,-132.49 745.46,-126.13"/>
</g>
<!-- ./documentos -->
<g id="node12" class="node">
<title>./documentos</title>
<path fill="none" stroke="black" d="M1136.5,-120.73C1136.5,-122.53 1112.74,-124 1083.5,-124 1054.26,-124 1030.5,-122.53 1030.5,-120.73 1030.5,-120.73 1030.5,-91.27 1030.5,-91.27 1030.5,-89.47 1054.26,-88 1083.5,-88 1112.74,-88 1136.5,-89.47 1136.5,-91.27 1136.5,-91.27 1136.5,-120.73 1136.5,-120.73"/>
<path fill="none" stroke="black" d="M1136.5,-120.73C1136.5,-118.92 1112.74,-117.45 1083.5,-117.45 1054.26,-117.45 1030.5,-118.92 1030.5,-120.73"/>
<text text-anchor="middle" x="1083.5" y="-102.3" font-family="Times,serif" font-size="14.00">./documentos</text>
</g>
<!-- rag&#45;app&#45;&gt;./documentos -->
<g id="edge9" class="edge">
<title>rag&#45;app&#45;&gt;./documentos</title>
<path fill="none" stroke="black" stroke-dasharray="5,2" d="M935.54,-215.19C968.65,-190.97 1019.27,-153.96 1051.87,-130.12"/>
<polygon fill="black" stroke="black" points="933.29,-212.49 927.29,-221.22 937.43,-218.14 933.29,-212.49"/>
<polygon fill="black" stroke="black" points="1054.15,-132.8 1060.16,-124.07 1050.02,-127.14 1054.15,-132.8"/>
<text text-anchor="middle" x="1087" y="-146.8" font-family="Times,serif" font-size="14.00">/app/documentos</text>
</g>
<!-- ./faiss_index -->
<g id="node13" class="node">
<title>./faiss_index</title>
<path fill="none" stroke="black" d="M932.5,-120.73C932.5,-122.53 910.54,-124 883.5,-124 856.46,-124 834.5,-122.53 834.5,-120.73 834.5,-120.73 834.5,-91.27 834.5,-91.27 834.5,-89.47 856.46,-88 883.5,-88 910.54,-88 932.5,-89.47 932.5,-91.27 932.5,-91.27 932.5,-120.73 932.5,-120.73"/>
<path fill="none" stroke="black" d="M932.5,-120.73C932.5,-118.92 910.54,-117.45 883.5,-117.45 856.46,-117.45 834.5,-118.92 834.5,-120.73"/>
<text text-anchor="middle" x="883.5" y="-102.3" font-family="Times,serif" font-size="14.00">./faiss_index</text>
</g>
<!-- rag&#45;app&#45;&gt;./faiss_index -->
<g id="edge10" class="edge">
<title>rag&#45;app&#45;&gt;./faiss_index</title>
<path fill="none" stroke="black" stroke-dasharray="5,2" d="M865.99,-214.96C848.06,-200.71 828.25,-181.02 818.5,-158 813.46,-146.11 820.01,-136.27 830.62,-128.52"/>
<polygon fill="black" stroke="black" points="863.98,-217.83 874.05,-221.11 868.23,-212.26 863.98,-217.83"/>
<polygon fill="black" stroke="black" points="832.8,-131.28 839.39,-122.99 829.07,-125.36 832.8,-131.28"/>
<text text-anchor="middle" x="872" y="-146.8" font-family="Times,serif" font-size="14.00">/app/faiss_index</text>
</g>
<!-- 0.0.0.08501 -->
<g id="node14" class="node">
<title>0.0.0.08501</title>
<ellipse fill="none" stroke="black" cx="713.5" cy="-415.48" rx="59.59" ry="59.59"/>
<text text-anchor="middle" x="713.5" y="-411.78" font-family="Times,serif" font-size="14.00">0.0.0.0:8501</text>
</g>
<!-- 0.0.0.08501&#45;&gt;rag&#45;app -->
<g id="edge11" class="edge">
<title>0.0.0.08501&#45;&gt;rag&#45;app</title>
<path fill="none" stroke="black" d="M757.34,-374.33C793.73,-340.99 844.35,-294.61 875.19,-266.36"/>
<polygon fill="black" stroke="black" points="877.58,-268.92 882.59,-259.59 872.85,-263.76 877.58,-268.92"/>
<text text-anchor="middle" x="829" y="-326.49" font-family="Times,serif" font-size="14.00">8501</text>
</g>
<!-- rag&#45;api -->
<g id="node15" class="node">
<title>rag&#45;api</title>
<polygon fill="none" stroke="black" points="1125,-434.48 870,-434.48 870,-430.48 866,-430.48 866,-426.48 870,-426.48 870,-404.48 866,-404.48 866,-400.48 870,-400.48 870,-396.48 1125,-396.48 1125,-434.48"/>
<polyline fill="none" stroke="black" points="870,-430.48 874,-430.48 874,-426.48 870,-426.48 "/>
<polyline fill="none" stroke="black" points="870,-404.48 874,-404.48 874,-400.48 870,-400.48 "/>
<text text-anchor="middle" x="997.5" y="-419.28" font-family="Times,serif" font-size="14.00">rag&#45;api</text>
<text text-anchor="middle" x="997.5" y="-404.28" font-family="Times,serif" font-size="14.00">(build from &#39;.&#39; using &#39;Dockerfile.api&#39;)</text>
</g>
<!-- rag&#45;api&#45;&gt;ollama -->
<g id="edge16" class="edge">
<title>rag&#45;api&#45;&gt;ollama</title>
<path fill="none" stroke="black" stroke-dasharray="1,5" d="M929.97,-396.46C881.28,-380.13 817.52,-351.34 778.5,-304.69 740.24,-258.95 767.07,-229.39 740.5,-176 732.95,-160.83 722.04,-145.52 712.25,-133.19"/>
<polygon fill="black" stroke="black" points="714.73,-130.7 705.7,-125.16 709.31,-135.12 714.73,-130.7"/>
</g>
<!-- rag&#45;api&#45;&gt;rag&#45;app -->
<g id="edge17" class="edge">
<title>rag&#45;api&#45;&gt;rag&#45;app</title>
<path fill="none" stroke="black" stroke-dasharray="1,5" d="M987.51,-396.28C970.76,-365.76 936.93,-304.1 917.37,-268.45"/>
<polygon fill="black" stroke="black" points="920.37,-266.65 912.5,-259.56 914.24,-270.01 920.37,-266.65"/>
</g>
<!-- rag&#45;api&#45;&gt;./documentos -->
<g id="edge13" class="edge">
<title>rag&#45;api&#45;&gt;./documentos</title>
<path fill="none" stroke="black" stroke-dasharray="5,2" d="M1071.16,-392.75C1113.56,-376.02 1163.3,-348.24 1188.5,-304.69 1217.14,-255.18 1215.65,-226.34 1188.5,-176 1177,-154.68 1155.71,-138.87 1135.3,-127.8"/>
<polygon fill="black" stroke="black" points="1069.78,-389.53 1061.68,-396.35 1072.27,-396.07 1069.78,-389.53"/>
<polygon fill="black" stroke="black" points="1136.82,-124.65 1126.33,-123.2 1133.63,-130.88 1136.82,-124.65"/>
<text text-anchor="middle" x="1266" y="-236.64" font-family="Times,serif" font-size="14.00">/app/documentos</text>
</g>
<!-- rag&#45;api&#45;&gt;./faiss_index -->
<g id="edge14" class="edge">
<title>rag&#45;api&#45;&gt;./faiss_index</title>
<path fill="none" stroke="black" stroke-dasharray="5,2" d="M1009.87,-386.9C1036.47,-325.61 1094.31,-180.58 1063.5,-143 1055.73,-133.52 992.25,-122.43 942.85,-115.09"/>
<polygon fill="black" stroke="black" points="1006.55,-385.76 1005.74,-396.32 1012.96,-388.57 1006.55,-385.76"/>
<polygon fill="black" stroke="black" points="943.26,-111.61 932.86,-113.63 942.25,-118.54 943.26,-111.61"/>
<text text-anchor="middle" x="1125" y="-236.64" font-family="Times,serif" font-size="14.00">/app/faiss_index</text>
</g>
<!-- 0.0.0.08000 -->
<g id="node16" class="node">
<title>0.0.0.08000</title>
<ellipse fill="none" stroke="black" cx="997.5" cy="-586.07" rx="59.59" ry="59.59"/>
<text text-anchor="middle" x="997.5" y="-582.37" font-family="Times,serif" font-size="14.00">0.0.0.0:8000</text>
</g>
<!-- 0.0.0.08000&#45;&gt;rag&#45;api -->
<g id="edge15" class="edge">
<title>0.0.0.08000&#45;&gt;rag&#45;api</title>
<path fill="none" stroke="black" d="M997.5,-526.11C997.5,-498.53 997.5,-466.96 997.5,-444.8"/>
<polygon fill="black" stroke="black" points="1001,-444.74 997.5,-434.74 994,-444.74 1001,-444.74"/>
<text text-anchor="middle" x="1013" y="-497.08" font-family="Times,serif" font-size="14.00">8000</text>
</g>
</g>
</svg>
